<?xml version="1.0" encoding="utf-8"?>
<!-- Generator: Adobe Illustrator 16.0.0, SVG Export Plug-In . SVG Version: 6.00 Build 0)  -->
<!DOCTYPE svg PUBLIC "-//W3C//DTD SVG 1.1//EN" "http://www.w3.org/Graphics/SVG/1.1/DTD/svg11.dtd">
<svg version="1.1" id="Layer_1" xmlns="http://www.w3.org/2000/svg" xmlns:xlink="http://www.w3.org/1999/xlink" x="0px" y="0px" viewBox="0 0 128 128" enable-background="new 0 0 128 128" xml:space="preserve">
<path fill="#FFFFFF" d="M92.159,79.087c-1.212-1.69-2.647-3.28-4.271-4.729c-1.52-1.359-3.052-2.726-4.716-4.168l-5.161-3.985
	c-0.736-0.638-1.508-1.379-2.318-2.246c-0.465-0.493-0.69-1.235-0.69-2.29c0-1.123,0.259-1.984,0.804-2.646
	c0.82-1.004,1.689-1.959,2.375-2.664c1.61-1.204,3.164-2.477,4.678-3.831c1.574-1.41,3.002-2.995,4.259-4.705
	c1.293-1.778,2.33-3.818,3.089-6.071c0.754-2.264,1.137-4.891,1.137-7.817c0-2.958-0.439-5.659-1.3-8.029
	c-0.841-2.29-1.853-4.336-3.026-6.071c-0.793-1.192-1.64-2.278-2.5-3.238h3.814L106,7H67.033c-4.12,0-8.628,0.505-13.389,1.497
	c-4.955,1.036-9.722,3.382-14.23,7.038c-3.353,2.914-5.906,6.264-7.586,9.977c-1.683,3.7-2.531,7.456-2.531,11.149
	c0,3.07,0.593,6.151,1.752,9.152c1.174,3.02,2.904,5.734,5.149,8.067c2.242,2.333,5.037,4.237,8.324,5.666
	c3.624,1.56,7.941,2.271,12.547,2.122c-0.236,0.898-0.339,1.927-0.339,3.125c0,2.633,0.571,4.904,1.717,6.757
	c0.239,0.38,0.472,0.755,0.719,1.13c-0.581,0.049-1.193,0.092-1.814,0.155c-2.312,0.192-4.798,0.549-7.382,1.042
	c-2.615,0.5-5.288,1.18-7.929,2.021c-2.734,0.867-5.329,2.045-7.687,3.469c-4.663,2.732-7.935,6.015-9.727,9.746
	C22.883,92.739,22,96.064,22,99.003c0,3.058,0.712,6.008,2.142,8.791c1.425,2.771,3.617,5.253,6.512,7.381
	c2.82,2.078,6.38,3.763,10.557,4.991c4.126,1.217,8.987,1.834,14.431,1.834c6.437,0,12.258-0.842,17.295-2.508
	c5.051-1.684,9.348-3.918,12.739-6.625c3.464-2.77,6.119-5.977,7.905-9.54c1.809-3.593,2.72-7.306,2.72-11.031
	c0-2.758-0.38-5.253-1.146-7.418C94.395,82.736,93.391,80.784,92.159,79.087z M69.583,24.476c1.438,2.515,2.544,5.26,3.272,8.155
	c0.725,2.919,1.092,5.621,1.092,8.036c0,1.205-0.182,2.777-0.543,4.679c-0.305,1.597-1.102,3.014-2.439,4.349
	c-0.961,0.954-2.217,1.778-3.742,2.434C63.102,53.9,58.97,53.264,55.962,50.9c-2.05-1.603-3.768-3.612-5.13-5.971
	c-1.385-2.415-2.437-5.054-3.108-7.843c-0.691-2.814-1.036-5.378-1.036-7.618c0-1.748,0.201-3.476,0.596-5.154
	c0.364-1.522,1.056-2.895,2.116-4.205c0.945-1.179,2.205-2.14,3.721-2.857c1.555-0.737,3.103-1.093,4.719-1.093
	c2.509,0,4.642,0.724,6.537,2.203C66.418,19.972,68.176,22.024,69.583,24.476z M63.045,81.041c1.017-0.044,1.661-0.075,1.938-0.075
	h1.832c0.193,0,0.414,0.019,0.662,0.043c2.516,1.791,4.719,3.413,6.642,4.86c1.909,1.447,3.46,2.851,4.622,4.18
	c1.099,1.26,1.935,2.553,2.465,3.819c0.509,1.21,0.77,2.601,0.77,4.124c0,3.861-1.514,6.962-4.635,9.477
	c-3.209,2.602-8.111,3.918-14.538,3.918c-7.354,0-13.219-1.517-17.43-4.505c-4.022-2.856-5.984-6.433-5.984-10.919
	c0-2.195,0.417-4.005,1.228-5.384c0.892-1.522,1.937-2.796,3.096-3.774c1.181-1.018,2.396-1.798,3.611-2.341
	c1.344-0.604,2.393-1.042,3.024-1.278c1.485-0.469,3.018-0.854,4.6-1.18c1.567-0.324,3.052-0.549,4.427-0.686
	C60.785,81.177,62.009,81.083,63.045,81.041z"/>
</svg>
