<?xml version="1.0" encoding="utf-8"?>
<!-- Generator: Adobe Illustrator 16.0.0, SVG Export Plug-In . SVG Version: 6.00 Build 0)  -->
<!DOCTYPE svg PUBLIC "-//W3C//DTD SVG 1.1//EN" "http://www.w3.org/Graphics/SVG/1.1/DTD/svg11.dtd">
<svg version="1.1" id="Layer_1" xmlns="http://www.w3.org/2000/svg" xmlns:xlink="http://www.w3.org/1999/xlink" x="0px" y="0px" viewBox="0 0 128 128" enable-background="new 0 0 128 128" xml:space="preserve">
<path fill="#FFFFFF" d="M127.993,25.956c-4.709,2.029-9.771,3.399-15.083,4.015c5.421-3.155,9.585-8.152,11.546-14.106
	c-5.075,2.922-10.694,5.044-16.677,6.188C102.99,17.096,96.165,14,88.611,14c-14.502,0-26.26,11.416-26.26,25.497
	c0,1.998,0.232,3.944,0.68,5.811C41.207,44.244,21.855,34.093,8.904,18.667c-2.261,3.765-3.555,8.146-3.555,12.818
	c0,8.846,4.636,16.65,11.683,21.223c-4.305-0.133-8.354-1.28-11.895-3.189c-0.002,0.106-0.002,0.213-0.002,0.32
	c0,12.354,9.052,22.659,21.065,25.001c-2.204,0.583-4.523,0.895-6.918,0.895c-1.692,0-3.338-0.16-4.941-0.457
	c3.341,10.13,13.04,17.502,24.531,17.707C29.884,99.825,18.561,103.9,6.257,103.9c-2.12,0-4.21-0.121-6.264-0.357
	C11.614,110.777,25.418,115,40.248,115c48.303,0,74.717-38.854,74.717-72.546c0-1.105-0.025-2.206-0.076-3.299
	C120.02,35.56,124.473,31.069,127.993,25.956z"/>
</svg>
