<svg id="Layer_1" xmlns="http://www.w3.org/2000/svg" viewBox="0 0 141.6 183"><style>.st0{fill:#37a0ff}.st1{fill:#494e58}.st2{fill:#1684ef}.st3{fill:#2595fe}.st4{fill:#137ade}.st5{fill:#525b68}.st6{fill:none;stroke:#404041;stroke-width:5;stroke-miterlimit:10}.st7{fill:#3a3f47}.st8{fill:#57606d}.st9{fill:none;stroke:#fff;stroke-width:3;stroke-miterlimit:10}.st10{fill:#546c89}.st11{fill:#5e7a96}.st12{fill-rule:evenodd;clip-rule:evenodd;fill:none;stroke:#0060a8;stroke-width:8;stroke-linecap:round;stroke-linejoin:round;stroke-miterlimit:10}.st13,.st14,.st15,.st16,.st17{fill-rule:evenodd;clip-rule:evenodd;fill:#0060a8}.st14,.st15,.st16,.st17{fill:#fff}.st15,.st16,.st17{fill:#164b78}.st16,.st17{fill:#cce9ff}.st17{fill:#2e9fff}.st18{fill:#fff}.st19{fill:#5d5d5d}.st20{fill:#0060a8}.st21{fill:#64bdff}.st22{fill:#9fd6ff}.st23{fill:#85d1ff}.st24{fill:#0e7dc1}.st25{fill:#00adee}.st26{fill:#404041}.st27{opacity:.26}.st28{fill:#2f9aea}.st29,.st30,.st31{fill:#94d77f;stroke:#94d77f;stroke-width:2;stroke-miterlimit:10}.st30,.st31{fill:none;stroke:#fff}.st31{stroke:#1795e2;stroke-width:5;stroke-linecap:round;stroke-linejoin:round}.st32{fill:#1795e2}.st33{fill:#39b4ff}.st34{fill:#4bacff}.st35{fill:#231f20}.st36,.st37{stroke-width:5;stroke-linecap:round;stroke-linejoin:round;stroke-miterlimit:10}.st36{fill:none;stroke:#85d1ff}.st37{stroke:#0060a8}.st37,.st38{fill:none}.st39{fill:#208ffa}.st40{fill:#ee4036}.st41{fill:#faaf40}.st42,.st43{fill-rule:evenodd;clip-rule:evenodd;fill:#8dd1ff}.st43{fill:#64bdff}.st44{fill:#8dd1ff}</style><path class="st20" d="M117.5 140.5c-.4 0-.9-.1-1.3-.2-2.1-.7-3.2-3-2.4-5.1 5.4-15.2-13.1-35.2-13.3-35.4-1.5-1.6-1.4-4.1.2-5.7 1.6-1.5 4.1-1.4 5.7.2.9 1 22 23.8 15 43.5-.7 1.7-2.3 2.7-3.9 2.7z"/><path class="st13" d="M130.4 132.9c6.9 2.4 11.9 6.7 11.2 9.7-.7 3.1-6.9 3.9-14.1 1.6-7.5-2.4-13-7-12-10.3.9-3.1 7.7-3.5 14.9-1z"/><path class="st13" d="M128.9 141c4.9 5.6 7.1 12.1 4.8 14.4-2.4 2.4-8.7-.6-13.8-6.8-5-6-6.8-12.3-4.1-14.2 2.6-1.8 8.4 1.1 13.1 6.6z"/><path class="st13" d="M121.8 148.1c-.7 7.6-3.9 13.5-7.2 13.2-3.3-.4-5.3-7-4.5-14.8.8-7.8 4.1-13.5 7.3-12.9 3.2.5 5.1 7 4.4 14.5z"/><path class="st20" d="M84.8 163.2c-.6 0-1.1-.1-1.7-.4C63.9 154 62 115 62 113.4c-.1-2.2 1.6-4.1 3.8-4.2 2.2-.1 4.1 1.6 4.2 3.8.4 9.9 4.2 36.9 16.5 42.6 2 .9 2.9 3.3 2 5.3-.7 1.5-2.2 2.3-3.7 2.3z"/><path class="st13" d="M94.7 161.3c5.3 5.2 7.9 11.3 5.9 13.7-2 2.5-8.1.5-13.7-4.7-5.8-5.4-8.8-12.1-6.5-14.6 2.3-2.5 8.8.1 14.3 5.6z"/><path class="st13" d="M89.7 168.1c2 7.2 1.1 13.8-1.9 14.8-3.2 1.1-7.5-4.3-9.6-11.9-2-7.5-.9-14.1 2.4-14.7 3.1-.5 7.2 4.7 9.1 11.8z"/><path class="st13" d="M80.1 171.3c-3.9 6.3-9.2 10.1-11.9 8.4-2.8-1.7-1.9-8.4 2-15 4-6.7 9.5-10.5 12.2-8.6 2.7 2 1.6 8.8-2.3 15.2z"/><g><path class="st42" d="M2.8 85.7C-7.7 50.5 12.4 13.4 47.7 2.8s72.5 9.4 83 44.7c10.5 35.2-11.1 67.2-46.4 77.8-35.3 10.5-71-4.3-81.5-39.6z"/><path class="st15" d="M33.1 39.5c-.8-2.5.8-5.2 3.4-6 2.7-.8 5.4.6 6.2 3.1.8 2.5-.8 5.2-3.5 6-2.5.9-5.3-.5-6.1-3.1zM70.2 28c-.8-2.5.8-5.2 3.5-6 2.7-.8 5.4.6 6.2 3.1s-.8 5.2-3.4 6c-2.8.8-5.6-.6-6.3-3.1z"/><path class="st43" d="M82.8 38.5c-2.1-7 1.9-14.4 8.9-16.5s14.4 1.9 16.5 8.9c2.1 7-1.9 14.4-8.9 16.5-6.9 2.2-14.4-1.8-16.5-8.9zM12.4 59.6c-2.1-7 1.9-14.4 8.9-16.5 7-2.1 14.4 1.9 16.5 8.9S36 66.4 29 68.5c-7.1 2.1-14.5-1.9-16.6-8.9z"/><circle class="st17" cx="94.7" cy="31.7" r="2.3"/><circle class="st17" cx="86.4" cy="26" r="2.3"/><circle class="st17" cx="96.9" cy="22.9" r="2.3"/><circle class="st17" cx="19.8" cy="54.1" r="2.3"/><circle class="st17" cx="11.5" cy="48.4" r="2.3"/><circle class="st17" cx="22" cy="45.3" r="2.3"/><path class="st17" d="M46.9 49.2c3.6 4.9 10.1 7.3 16.2 5.4s10.3-7.4 10.6-13.5c.1-1-1.3-1.4-2.1-.7-2.5 2.3-6.5 4.1-11.1 5.4-4.8 1.4-9.3 2.1-12.8 1.4-.8 0-1.4 1.2-.8 2z"/></g></svg>